# xmcd CD database file
#
# Track frame offsets:
#	150
#	10885
#	20153
#	33163
#	46868
#	55478
#	70161
#	81460
#	94470
#	106521
#	115977
#	127915
#	144835
#	157047
#	168458
#	182314
#	191244
#	204667
#	219425
#	230325
#	240556
#	254797
#	266481
#	278485
#
# Disc length: 3871 seconds
#
# Revision: 0
# Processed by: cddbd v1.5.2PL0 Copyright (c) Steve Scherf et al.
# Submitted via: CDex 1.70beta2
#
DISCID=520f1d18
DTITLE=Verzamel - This is Country And Western Music - 24 Golden Hits
DYEAR=1900
DGENRE=Country
TTITLE0=Big river - Johnny Cash
TTITLE1=Ruby Ann - Marty Robbins
TTITLE2=North To Alaska- Johnny Robbins
TTITLE3=Heartaches By The Number - Ray Price
TTITLE4=Fireball Mail - Lester Flatt and Earl Scruggs
TTITLE5=Nine Pound Hammer - Johnny Cash
TTITLE6=Singing The Blues - Marty Robbins
TTITLE7=Release Me - Lefty Frizzel
TTITLE8=Fräulein - Bobby Helms
TTITLE9=Pick Me Up On Your Way Down - Charlie Walker
TTITLE10=Night Train To Memphis - Carl Smith
TTITLE11=The Streets Of Laredo - Johnny Cash
TTITLE12=Too Many Times (Away From You) - David Houston
TTITLE13=Begging To You - Marty Robbins
TTITLE14=Don't Be Angry - Stonewal Jackson
TTITLE15=All Grown Up - Johnny Horton
TTITLE16=Don't Let Me Cross Over - Carl Butler and Pearl
TTITLE17=I Still Miss Somewone - Johnny Cash
TTITLE18=Good - Tammy Wynette
TTITLE19=I Can't Help It (I'm Still Missing You) - Marty Robbins
TTITLE20=The Long Black Veil - JOhnny Cash
TTITLE21=Laura (What's He Got I Ain't Got) - Claude King
TTITLE22=When It's Springtime In Alaska (It's Forty Below) - Johnny Horton
TTITLE23=Wabbash Cannonball - Mountain Boys
EXTD=
EXTT0=
EXTT1=
EXTT2=
EXTT3=
EXTT4=
EXTT5=
EXTT6=
EXTT7=
EXTT8=
EXTT9=
EXTT10=
EXTT11=
EXTT12=
EXTT13=
EXTT14=
EXTT15=
EXTT16=
EXTT17=
EXTT18=
EXTT19=
EXTT20=
EXTT21=
EXTT22=
EXTT23=
PLAYORDER=
